<svg xmlns="http://www.w3.org/2000/svg" xmlns:xlink="http://www.w3.org/1999/xlink"><defs><symbol viewBox="0 0 24.75 24.75" id="burger"><path d="M0 3.875a2 2 0 012-2h20.75a2 2 0 010 4H2a2 2 0 01-2-2zm22.75 6.5H2a2 2 0 000 4h20.75a2 2 0 000-4zm0 8.5H2a2 2 0 000 4h20.75a2 2 0 000-4z" /></symbol><symbol viewBox="0 0 21.9 21.9" id="close"><path d="M14.1 11.3c-.2-.2-.2-.5 0-.7l7.5-7.5c.2-.2.3-.5.3-.7s-.1-.5-.3-.7L20.2.3c-.2-.2-.5-.3-.7-.3-.3 0-.5.1-.7.3l-7.5 7.5c-.2.2-.5.2-.7 0L3.1.3C2.9.1 2.6 0 2.4 0s-.5.1-.7.3L.3 1.7c-.2.2-.3.5-.3.7s.1.5.3.7l7.5 7.5c.2.2.2.5 0 .7L.3 18.8c-.2.2-.3.5-.3.7s.1.5.3.7l1.4 1.4c.2.2.5.3.7.3s.5-.1.7-.3l7.5-7.5c.2-.2.5-.2.7 0l7.5 7.5c.2.2.5.3.7.3s.5-.1.7-.3l1.4-1.4c.2-.2.3-.5.3-.7s-.1-.5-.3-.7l-7.5-7.5z" /></symbol><symbol viewBox="0 0 98 70" id="logo"><g fill="#fff" stroke="#707070"><path stroke="none" d="M0 0h98v70H0z" /><path fill="none" d="M.5.5h97v69H.5z" /></g><text transform="translate(36 42)" fill="#432323" font-size="14" font-family="Roboto-Regular, Roboto"><tspan x="0" y="0">logo</tspan></text></symbol><symbol viewBox="0 0 32.188 32.188" id="next"><defs><filter id="next_a" x="0" y="0" width="32.188" height="32.188" filterUnits="userSpaceOnUse"><feOffset dy=".5"></feOffset><feGaussianBlur stdDeviation=".5" result="b"></feGaussianBlur><feFlood flood-color="#2d95ea" flood-opacity=".4"></feFlood><feComposite operator="in" in2="b"></feComposite><feComposite in="SourceGraphic"></feComposite></filter></defs><g filter="url(#next_a)"><path d="M16.094 1A14.594 14.594 0 111.5 15.594 14.594 14.594 0 0116.094 1z" fill="#2d95ea" /></g><path d="M12.081 10.121l7.818 6.03-7.818 5.226" fill="none" stroke="#fdfdfd" stroke-width="2" /></symbol><symbol viewBox="0 0 30.873 42.969" id="poi"><g transform="translate(-983 -3873)"><path d="M998.436 3873a15.436 15.436 0 0115.437 15.436c0 .179 0 .357-.034 1.039-.257 7.774-15.53 26.4-15.4 26.494.161 0-15.439-19.007-15.439-27.533A15.436 15.436 0 01998.436 3873z" fill="#ff3030" /><circle cx="8.937" cy="8.937" r="8.937" transform="translate(989.5 3879.5)" fill="#fff" /></g></symbol><symbol viewBox="0 0 22.027 19.799" id="pointer"><g transform="translate(-907.514 -857.099)" fill="#3498db"><circle cx="6.876" cy="6.876" transform="rotate(-2 24956.751 -25714.868)" r="6.876" /><path d="M910.606 872.126l5.476-10.335 11.076 1.202-3.34 1.19-1.347 7.021z" /></g></symbol><symbol viewBox="0 0 32.188 32.188" id="prev"><defs><filter id="prev_a" x="0" y="0" width="32.188" height="32.188" filterUnits="userSpaceOnUse"><feOffset dy=".5"></feOffset><feGaussianBlur stdDeviation=".5" result="b"></feGaussianBlur><feFlood flood-color="#2d95ea" flood-opacity=".4"></feFlood><feComposite operator="in" in2="b"></feComposite><feComposite in="SourceGraphic"></feComposite></filter></defs><g filter="url(#prev_a)"><circle cx="14.594" cy="14.594" transform="translate(1.5 1)" fill="#2d95ea" r="14.594" /></g><path d="M20.107 10.121l-7.819 6.03 7.819 5.226" fill="none" stroke="#fdfdfd" stroke-width="2" /></symbol></defs></svg>